{
    "asset" : {
        "generator" : "Khronos glTF Blender I/O v1.8.19",
        "version" : "2.0"
    },
    "scene" : 0,
    "scenes" : [
        {
            "name" : "Scene",
            "nodes" : [
                0
            ]
        }
    ],
    "nodes" : [
        {
            "mesh" : 0,
            "name" : "\u8f7f\u8f6635"
        }
    ],
    "materials" : [
        {
            "doubleSided" : true,
            "name" : "Mat3d66-8694087-33-87323",
            "pbrMetallicRoughness" : {
                "baseColorTexture" : {
                    "index" : 0
                },
                "metallicFactor" : 0,
                "roughnessFactor" : 0.5
            }
        },
        {
            "doubleSided" : true,
            "name" : "Mat3d66-8694087-32-10578",
            "pbrMetallicRoughness" : {
                "baseColorTexture" : {
                    "index" : 1
                },
                "metallicFactor" : 0,
                "roughnessFactor" : 0.6417322754859924
            }
        }
    ],
    "meshes" : [
        {
            "name" : "Obj3d66-8694087-31-687",
            "primitives" : [
                {
                    "attributes" : {
                        "POSITION" : 0,
                        "NORMAL" : 1,
                        "TEXCOORD_0" : 2
                    },
                    "indices" : 3,
                    "material" : 0
                },
                {
                    "attributes" : {
                        "POSITION" : 4,
                        "NORMAL" : 5,
                        "TEXCOORD_0" : 6
                    },
                    "indices" : 7,
                    "material" : 1
                }
            ]
        }
    ],
    "textures" : [
        {
            "sampler" : 0,
            "source" : 0
        },
        {
            "sampler" : 0,
            "source" : 1
        }
    ],
    "images" : [
        {
            "bufferView" : 4,
            "mimeType" : "image/jpeg",
            "name" : "3d66Model-8694087-files-26"
        },
        {
            "bufferView" : 9,
            "mimeType" : "image/jpeg",
            "name" : "3d66Model-8694087-files-3"
        }
    ],
    "accessors" : [
        {
            "bufferView" : 0,
            "componentType" : 5126,
            "count" : 1570,
            "max" : [
                1.2744641304016113,
                1.9181950092315674,
                2.651202440261841
            ],
            "min" : [
                -1.2744641304016113,
                0.28120148181915283,
                -2.651202440261841
            ],
            "type" : "VEC3"
        },
        {
            "bufferView" : 1,
            "componentType" : 5126,
            "count" : 1570,
            "type" : "VEC3"
        },
        {
            "bufferView" : 2,
            "componentType" : 5126,
            "count" : 1570,
            "type" : "VEC2"
        },
        {
            "bufferView" : 3,
            "componentType" : 5123,
            "count" : 4908,
            "type" : "SCALAR"
        },
        {
            "bufferView" : 5,
            "componentType" : 5126,
            "count" : 932,
            "max" : [
                1.1499981880187988,
                0.8351062536239624,
                2.0155088901519775
            ],
            "min" : [
                -1.2029690742492676,
                0,
                -2.0690758228302
            ],
            "type" : "VEC3"
        },
        {
            "bufferView" : 6,
            "componentType" : 5126,
            "count" : 932,
            "type" : "VEC3"
        },
        {
            "bufferView" : 7,
            "componentType" : 5126,
            "count" : 932,
            "type" : "VEC2"
        },
        {
            "bufferView" : 8,
            "componentType" : 5123,
            "count" : 3552,
            "type" : "SCALAR"
        }
    ],
    "bufferViews" : [
        {
            "buffer" : 0,
            "byteLength" : 18840,
            "byteOffset" : 0
        },
        {
            "buffer" : 0,
            "byteLength" : 18840,
            "byteOffset" : 18840
        },
        {
            "buffer" : 0,
            "byteLength" : 12560,
            "byteOffset" : 37680
        },
        {
            "buffer" : 0,
            "byteLength" : 9816,
            "byteOffset" : 50240
        },
        {
            "buffer" : 0,
            "byteLength" : 168166,
            "byteOffset" : 60056
        },
        {
            "buffer" : 0,
            "byteLength" : 11184,
            "byteOffset" : 228224
        },
        {
            "buffer" : 0,
            "byteLength" : 11184,
            "byteOffset" : 239408
        },
        {
            "buffer" : 0,
            "byteLength" : 7456,
            "byteOffset" : 250592
        },
        {
            "buffer" : 0,
            "byteLength" : 7104,
            "byteOffset" : 258048
        },
        {
            "buffer" : 0,
            "byteLength" : 47168,
            "byteOffset" : 265152
        }
    ],
    "samplers" : [
        {
            "magFilter" : 9729,
            "minFilter" : 9987
        }
    ],
    "buffers" : [
        {
            "byteLength" : 312320,
            "uri" : "data:application/octet-stream;base64,"
        }
    ]
}
