<?xml version="1.0" encoding="utf-8"?>
<!-- Generator: Adobe Illustrator 26.3.1, SVG Export Plug-In . SVG Version: 6.00 Build 0)  -->
<svg version="1.1" id="_层_1" xmlns="http://www.w3.org/2000/svg" xmlns:xlink="http://www.w3.org/1999/xlink" x="0px" y="0px"
	 viewBox="0 0 75.8 78.1" style="enable-background:new 0 0 75.8 78.1;" xml:space="preserve">
<style type="text/css">
	.st0{fill:#FFCC33;}
	.st1{fill:#FFFFFF;}
</style>
<ellipse transform="matrix(0.9998 -1.867394e-02 1.867394e-02 0.9998 -0.7222 0.7144)" class="st0" cx="37.9" cy="39" rx="37.9" ry="39"/>
<path class="st1" d="M19,50.2c0,2.1,0.9,4,2.4,5.3v4.2c0,1.3,1.1,2.4,2.4,2.4h2.4c1.3,0,2.4-1.1,2.4-2.4v-2.4h19v2.4
	c0,1.3,1.1,2.4,2.4,2.4h2.4c1.3,0,2.4-1.1,2.4-2.4v-4.2c1.4-1.3,2.4-3.2,2.4-5.3V26.4c0-8.3-8.5-9.5-19-9.5c-10.5,0-19,1.2-19,9.5
	C19,26.4,19,50.2,19,50.2z M27.3,52.6c-2,0-3.6-1.6-3.6-3.6c0-2,1.6-3.6,3.6-3.6c2,0,3.6,1.6,3.6,3.6C30.9,51,29.3,52.6,27.3,52.6
	L27.3,52.6z M48.7,52.6c-2,0-3.6-1.6-3.6-3.6c0-2,1.6-3.6,3.6-3.6c2,0,3.6,1.6,3.6,3.6C52.2,51,50.7,52.6,48.7,52.6L48.7,52.6z
	 M52.2,38.3H23.7V26.4h28.5V38.3z"/>
</svg>
