<?xml version="1.0" encoding="UTF-8"?><svg id="_层_1" xmlns="http://www.w3.org/2000/svg" viewBox="0 0 75.77 78.06"><defs><style>.cls-1{fill:#fff;}.cls-2{fill:#ea249a;}</style></defs><ellipse class="cls-2" cx="37.89" cy="39.03" rx="37.89" ry="39.03" transform="translate(-.72 .71) rotate(-1.07)"/><path class="cls-1" d="M55.63,16.91h-10.28v-.19c0-1.96-1.59-3.54-3.54-3.54h-7.56c-1.96,0-3.54,1.59-3.54,3.54v.19h-10.56c-2.09,0-3.79,1.7-3.79,3.79h0v30.62c0,2.09,1.7,3.79,3.79,3.79h2.15l-2.07,7.35c-.29,1.01,.3,2.06,1.31,2.35,.17,.05,.34,.07,.52,.07,.85,0,1.59-.56,1.83-1.37l.67-2.36h26.7l.67,2.36c.23,.81,.97,1.37,1.82,1.37,1.04,0,1.89-.84,1.89-1.89,0-.18-.02-.36-.07-.53l-2.07-7.35h2.15c2.09,0,3.79-1.7,3.79-3.79V20.7c0-2.1-1.71-3.79-3.8-3.79Zm-19.63-.57h3.45c1.02,0,1.85,.84,1.86,1.86,0,1.03-.83,1.86-1.86,1.87h-3.44c-1.03,.02-1.88-.81-1.9-1.84,0-.01,0-.02,0-.03,0-1.03,.85-1.87,1.88-1.86h.01Zm-16.22,19.63v-10.59c0-1.03,.84-1.87,1.87-1.87,.02,0,.04,0,.06,0h10.57c1.02,.02,1.83,.85,1.83,1.87v10.63c0,1.03-.84,1.86-1.87,1.86h-10.53c-1.03,.03-1.89-.79-1.92-1.82v-.08Zm3.72,10.49v-3.41c0-.95,.77-1.72,1.72-1.72h.01c.95,0,1.72,.77,1.72,1.72h0v3.45c0,.95-.77,1.72-1.72,1.72h0c-.95,0-1.72-.77-1.72-1.72h0v-.04Zm26.67,10.95H25.56l.66-2.3h23.31l.65,2.3Zm.33-9.2h-.29c-.95,0-1.72-.77-1.72-1.72h0v-3.45c0-.95,.77-1.72,1.72-1.72h.29c.95,0,1.72,.76,1.73,1.7h0v3.46c0,.95-.77,1.72-1.72,1.72h-.01Zm3.31-10.33h-10.63c-1.02-.01-1.85-.85-1.85-1.87v-10.63c0-1.03,.84-1.87,1.87-1.87h10.61c1.03,0,1.87,.84,1.87,1.87h0v10.63c0,1.03-.84,1.86-1.87,1.86h0Z"/></svg>